<?xml version="1.0" encoding="utf-8"?>
<svg width="122.07141px" height="183px" viewBox="0 0 122.07141 183" version="1.1" xmlns:xlink="http://www.w3.org/1999/xlink" xmlns="http://www.w3.org/2000/svg">
  <defs>
    <linearGradient gradientUnits="userSpaceOnUse" x1="21.187502" y1="87.39844" x2="175.8058" y2="-11.4765625" id="gradient_1">
      <stop offset="0%" stop-color="#FFFFFF" stop-opacity="0" />
      <stop offset="100%" stop-color="#9C9898" />
    </linearGradient>
    <filter filterUnits="userSpaceOnUse" color-interpolation-filters="sRGB" id="filter_1">
      <feFlood flood-opacity="0" result="BackgroundImageFix" />
      <feColorMatrix in="SourceAlpha" type="matrix" values="0 0 0 0 0 0 0 0 0 0 0 0 0 0 0 0 0 0 127 0" />
      <feOffset dx="0" dy="2" />
      <feGaussianBlur stdDeviation="2" />
      <feColorMatrix type="matrix" values="0 0 0 0 0.39215687 0 0 0 0 0.39215687 0 0 0 0 0.39215687 0 0 0 0.49803922 0" />
      <feBlend mode="normal" in2="BackgroundImageFix" result="effect0_dropShadow" />
      <feBlend mode="normal" in="SourceGraphic" in2="effect0_dropShadow" result="shape" />
    </filter>
    <filter filterUnits="userSpaceOnUse" color-interpolation-filters="sRGB" id="filter_2">
      <feFlood flood-opacity="0" result="BackgroundImageFix" />
      <feColorMatrix in="SourceAlpha" type="matrix" values="0 0 0 0 0 0 0 0 0 0 0 0 0 0 0 0 0 0 127 0" />
      <feOffset dx="0" dy="2" />
      <feGaussianBlur stdDeviation="2" />
      <feColorMatrix type="matrix" values="0 0 0 0 0.39215687 0 0 0 0 0.39215687 0 0 0 0 0.39215687 0 0 0 0.6392157 0" />
      <feBlend mode="normal" in2="BackgroundImageFix" result="effect0_dropShadow" />
      <feBlend mode="normal" in="SourceGraphic" in2="effect0_dropShadow" result="shape" />
    </filter>
    <filter filterUnits="userSpaceOnUse" color-interpolation-filters="sRGB" id="filter_3">
      <feFlood flood-opacity="0" result="BackgroundImageFix" />
      <feColorMatrix in="SourceAlpha" type="matrix" values="0 0 0 0 0 0 0 0 0 0 0 0 0 0 0 0 0 0 127 0" />
      <feOffset dx="0" dy="2" />
      <feGaussianBlur stdDeviation="2" />
      <feColorMatrix type="matrix" values="0 0 0 0 0.39215687 0 0 0 0 0.39215687 0 0 0 0 0.39215687 0 0 0 1 0" />
      <feBlend mode="normal" in2="BackgroundImageFix" result="effect0_dropShadow" />
      <feBlend mode="normal" in="SourceGraphic" in2="effect0_dropShadow" result="shape" />
    </filter>
  </defs>
  <g id="Group-3" transform="translate(0.5 0.5)">
    <path d="M0 56.5C0 25.2959 27.1028 0 60.5357 0C93.9687 0 121.071 25.2959 121.071 56.5C121.071 87.7041 93.9687 113 60.5357 113C27.1028 113 0 87.7041 0 56.5Z" id="Ellipse" fill="url(#gradient_1)" fill-rule="evenodd" stroke="none" />
    <path d="M60 39L68.4853 47.4853L60 55.9706L51.5147 47.4853L60 39Z" id="Rectangle-4-Copy-2" fill="#FFFDFD" fill-rule="evenodd" stroke="none" />
    <path d="M98.1629 35.4497L80.4852 17.902L72 26.3873L98.1629 52.5502L98.1629 35.4497Z" id="Rectangle-6-Copy-4" fill="#FFFFFF" fill-rule="evenodd" stroke="none" />
    <path d="M79.5 16L40 16L49 25L54 25L60.8 18L67.5 25L71 25L79.5 16Z" id="Rectangle-6-Copy-5" fill="#FFFFFF" fill-rule="evenodd" stroke="none" filter="url(#filter_1)" />
    <path d="M21.4852 33.799L37.7487 17.2513L46.234 25.7365L21.4853 50.4853L21.4852 33.799Z" id="Rectangle-6-Copy-6" fill="#FFFFFF" fill-rule="evenodd" stroke="none" />
    <path d="M34.3086 59.7044L86.3533 91.8572L86.3068 103.823L34.2351 72.0982L34.3086 59.7044Z" id="Rectangle-6-Copy-7" fill="#FFFFFF" fill-rule="evenodd" stroke="none" />
    <path d="M98 58L60.3341 20L22 58L34 58L60.2286 32L86 58L98 58Z" id="Triangle-Copy-2-Xor" fill="#FFFFFF" fill-rule="evenodd" stroke="none" filter="url(#filter_1)" />
    <path d="M98 106L60.3341 144L22 106L34 106L60.2286 132L86 106L98 106Z" id="Triangle-Copy-2-Xor-2" fill="#FFFFFF" fill-rule="evenodd" stroke="none" />
    <path d="M34 60L22 60L22 104L34 104L34 60ZM86 60L86 104L98 104L98 60L86 60Z" id="Rectangle-8-Copy-Xor" fill="#FFFFFF" fill-rule="evenodd" stroke="none" filter="url(#filter_2)" />
    <g id="Milton" fill="#FFFFFF" transform="translate(22 155)">
      <path d="M31.6563 5.85938L35.0313 5.4375L35.0313 18.5061L35.043 19.3962Q35.043 20.1925 35.1367 20.5614Q35.2305 20.9302 35.5 21.1761Q35.8281 21.4924 36.707 21.6563L36.707 21.9023L31.5273 21.9023L31.5273 21.6563Q32.2305 21.5627 32.5352 21.393Q32.8398 21.2234 33.0273 20.8138Q33.1563 20.5446 33.209 20.0005Q33.2617 19.4564 33.2617 18.4268L33.2617 9.24133Q33.2617 8.04785 33.2031 7.5564Q33.1445 7.06494 32.9453 6.7608Q32.7461 6.43305 32.4648 6.29269Q32.1836 6.15234 31.6563 6.11719L31.6563 5.85938ZM25.527 7.26563Q25.8275 7.55859 26.2871 7.55859Q26.7467 7.5586 27.0472 7.26563Q27.3477 6.97266 27.3477 6.52734Q27.3477 6.09375 27.0413 5.79492Q26.735 5.49609 26.2871 5.49609Q25.8392 5.49609 25.5329 5.79492Q25.2266 6.09375 25.2266 6.52734Q25.2266 6.97266 25.527 7.26563ZM19.7402 6.35742Q20.1445 6.21094 20.8125 6.17578L20.8125 5.90625L15.9961 5.90625L10.7344 18.4336L5.66016 5.90625L0.574219 5.90625L0.574219 6.17578Q1.41797 6.22266 1.92773 6.48633Q2.4375 6.75 2.73047 7.30078Q2.94141 7.69922 3 8.56641Q3.03516 9.04688 3.03516 9.58594L3.03516 18.2227Q3.03516 19.418 2.90039 19.998Q2.76562 20.5781 2.40234 20.9531Q2.07422 21.293 1.6582 21.4453Q1.24219 21.5977 0.574219 21.6328L0.574219 21.9023L5.97656 21.9023L5.97656 21.6328Q5.30859 21.5977 4.89258 21.4453Q4.47656 21.293 4.14844 20.9531Q3.78516 20.5781 3.65039 20.0039Q3.51563 19.4297 3.51563 18.2227L3.51563 7.95703L9.51563 21.9023L9.76172 21.9023L15.7969 7.74609L15.7969 18.2227Q15.7969 19.418 15.6621 19.998Q15.5273 20.5781 15.1641 20.9531Q14.8359 21.2813 14.4199 21.4395Q14.0039 21.5977 13.3242 21.6328L13.3242 21.9023L20.8125 21.9023L20.8125 21.6328Q19.6406 21.5742 18.9961 20.9531Q18.6328 20.6016 18.4922 20.0156Q18.3516 19.4297 18.3516 18.2227L18.3516 9.58594Q18.3516 8.75391 18.4336 8.14453Q18.4805 7.6875 18.6094 7.38867Q18.7383 7.08984 18.9961 6.84375Q19.3359 6.50391 19.7402 6.35742ZM45.3516 11.9414L42.375 11.9414L42.375 8.89453L41.9385 8.89453L41.8206 9.28125Q41.6082 9.96094 41.3722 10.3887Q41.1363 10.8164 40.7472 11.25Q40.1016 11.9531 39.3398 12.1992L39.3398 12.3867L40.5938 12.3867L40.5938 19.4883Q40.5938 20.5078 40.6992 20.9004Q40.8047 21.293 41.1445 21.5742Q41.7773 22.1133 43.1602 22.1133Q44.2031 22.1133 44.9004 21.7734Q45.5977 21.4336 45.9844 20.7305L45.8091 20.5781Q45.3887 21.1523 45.0383 21.3691Q44.6878 21.5859 44.1621 21.5859Q43.7417 21.5859 43.3796 21.4219Q43.0175 21.2578 42.7956 20.9648Q42.375 20.4375 42.375 19.207L42.375 12.3867L45.3516 12.3867L45.3516 11.9414ZM27.2188 11.7656L23.8438 12.1875L23.8438 12.4336Q24.3711 12.4686 24.6523 12.6143Q24.9336 12.7601 25.1328 13.0865Q25.332 13.3896 25.3906 13.8735Q25.4492 14.3575 25.4492 15.5583L25.4492 18.4382Q25.4492 19.4643 25.3965 20.0065Q25.3438 20.5486 25.2148 20.8167Q25.0273 21.2249 24.7227 21.394Q24.418 21.563 23.7148 21.6563L23.7148 21.9023L28.8945 21.9023L28.8945 21.6563Q28.0156 21.4927 27.6875 21.1774Q27.418 20.9323 27.3242 20.5644Q27.2305 20.1965 27.2305 19.4026L27.2188 18.5151L27.2188 11.7656ZM47.9609 16.957Q47.9609 15.0586 49.3672 13.5703Q51.0781 11.7656 53.457 11.7656Q55.8359 11.7656 57.5352 13.5703Q58.9414 15.0703 58.9414 16.9688Q58.9414 18.8438 57.6055 20.3086Q55.9648 22.1133 53.457 22.1133Q50.9492 22.1133 49.2969 20.3086Q48.6523 19.6055 48.3066 18.7383Q47.9609 17.8711 47.9609 16.957ZM65.4883 13.038Q65.4883 12.449 65.3231 11.7656L62.1133 12.1875L62.1133 12.4336Q62.6406 12.4686 62.9219 12.6143Q63.2031 12.7601 63.4023 13.0865Q63.6016 13.3896 63.6602 13.8735Q63.7188 14.3575 63.7188 15.5583L63.7188 18.4382Q63.7188 19.4643 63.666 20.0065Q63.6133 20.5486 63.4844 20.8167Q63.2969 21.2249 62.9922 21.394Q62.6875 21.563 61.9844 21.6563L61.9844 21.9023L67.1641 21.9023L67.1641 21.6563Q66.2852 21.4924 65.957 21.1763Q65.6875 20.9306 65.5938 20.5619Q65.5 20.1932 65.5 19.3973L65.4883 18.5312L65.4883 16.2372Q65.4883 14.8678 65.5993 14.2767Q65.7104 13.6857 66.0612 13.2175Q66.3884 12.7727 66.9555 12.5153Q67.5226 12.2578 68.1774 12.2578Q68.7853 12.2578 69.288 12.4861Q69.7907 12.7143 70.0595 13.1239Q70.3051 13.4868 70.3928 14.0836Q70.4805 14.6805 70.4805 15.9564L70.4805 18.4376Q70.4805 19.4559 70.4277 20.0002Q70.375 20.5444 70.2461 20.8136Q70.0586 21.2232 69.7539 21.3929Q69.4492 21.5627 68.7461 21.6563L68.7461 21.9023L73.9258 21.9023L73.9258 21.6563Q73.0469 21.4924 72.7188 21.1763Q72.4492 20.9306 72.3555 20.5618Q72.2617 20.1931 72.2617 19.3973L72.2617 14.4344Q72.2617 13.1585 71.3594 12.4678Q70.4453 11.7656 68.9453 11.7656Q66.9414 11.7656 65.4883 13.2264L65.4883 13.038ZM50.0938 16.8224Q50.0938 18.8591 51.0078 20.2753Q52.0391 21.8555 53.5273 21.8555Q54.1602 21.8555 54.7578 21.5044Q55.3555 21.1533 55.7891 20.5212Q56.2461 19.8657 56.5273 18.8766Q56.8086 17.8876 56.8086 16.9629Q56.8086 16.0031 56.5098 15.0257Q56.2109 14.0484 55.707 13.346Q54.7461 12.0234 53.3516 12.0234Q52.0273 12.0234 51.0664 13.4163Q50.0938 14.8092 50.0938 16.8224Z" />
    </g>
    <g filter="url(#filter_3)">
      <g id="Group-Copy-2" transform="translate(49 58)">
        <path d="M5.5 3.7383L11.5 0L17.5001 3.7383L17.5001 59.8128L5.5 59.8128L5.5 3.7383Z" id="Rectangle-3" fill="#FFFFFF" fill-rule="evenodd" stroke="#FFFFFF" stroke-width="1" />
        <path d="M11.4999 69.9991L-1.90735e-06 57.5999C-1.90735e-06 57.5999 7.57141 60.6684 14 59.8544C20.4286 59.0403 29.5 51.9639 29.5 51.9639L11.4999 69.9991Z" id="Triangle-2" fill="#FFFFFF" fill-rule="evenodd" stroke="#FFFFFF" stroke-width="1" />
      </g>
    </g>
  </g>
</svg>